<?xml version="1.0" standalone="no"?>
<!DOCTYPE svg PUBLIC "-//W3C//DTD SVG 20010904//EN"
 "http://www.w3.org/TR/2001/REC-SVG-20010904/DTD/svg10.dtd">
<svg version="1.0" xmlns="http://www.w3.org/2000/svg"
 width="1280.000000pt" height="903.000000pt" viewBox="0 0 1280.000000 903.000000"
 preserveAspectRatio="xMidYMid meet">
<metadata>
Created by potrace 1.15, written by Peter Selinger 2001-2017
</metadata>
<g transform="translate(0.000000,903.000000) scale(0.100000,-0.100000)"
fill="#8bc34a" stroke="none">
<path d="M5995 9024 c-410 -20 -772 -48 -1033 -79 -1816 -222 -3324 -821
-4200 -1669 -676 -655 -911 -1413 -666 -2151 201 -607 710 -1161 1499 -1633
167 -99 533 -283 736 -370 886 -377 1947 -624 3079 -716 622 -51 1358 -51
1980 0 1717 140 3236 630 4240 1367 297 219 551 466 742 723 384 517 512 1094
369 1651 -245 952 -1277 1807 -2816 2332 -840 287 -1716 454 -2755 526 -208
15 -1005 27 -1175 19z m1180 -188 c890 -63 1626 -191 2370 -413 1292 -384
2278 -1000 2760 -1723 293 -440 389 -913 280 -1377 -145 -614 -652 -1199
-1450 -1675 -960 -573 -2285 -952 -3745 -1073 -630 -52 -1350 -52 -1980 0
-2450 202 -4435 1127 -5048 2351 -261 522 -255 1062 20 1584 457 870 1667
1621 3253 2019 740 186 1405 278 2340 325 166 8 1005 -4 1200 -18z"/>
<path d="M11013 2919 c-148 -15 -312 -61 -443 -126 -283 -140 -390 -361 -283
-583 35 -74 148 -184 243 -237 202 -114 516 -171 786 -143 404 41 699 214 768
449 42 142 -5 274 -138 398 -79 73 -152 117 -268 160 -111 42 -229 68 -367 82
-116 12 -165 12 -298 0z m361 -164 c263 -40 481 -155 545 -289 91 -188 -110
-381 -481 -463 -125 -27 -429 -25 -554 4 -238 56 -407 160 -465 287 -88 193
157 400 546 461 111 18 291 18 409 0z"/>
<path d="M11435 1659 c-240 -48 -426 -163 -493 -305 -23 -50 -27 -72 -27 -144
0 -74 4 -92 29 -143 65 -127 217 -232 415 -285 84 -22 116 -25 261 -26 139 0
179 3 255 22 137 34 266 102 342 178 88 87 118 154 117 259 0 68 -5 89 -29
138 -41 83 -143 176 -247 226 -136 65 -218 82 -408 86 -91 2 -187 -1 -215 -6z
m419 -139 c220 -56 356 -174 356 -308 0 -67 -24 -114 -88 -174 -284 -266 -980
-186 -1081 125 -52 159 150 331 444 377 91 14 278 4 369 -20z"/>
<path d="M11994 590 c-135 -18 -246 -64 -321 -133 -178 -164 -51 -372 268
-437 339 -70 691 73 691 280 0 145 -161 258 -412 290 -94 11 -136 11 -226 0z
m354 -115 c127 -43 202 -108 202 -176 0 -64 -80 -134 -200 -175 -98 -34 -287
-44 -398 -20 -161 34 -272 114 -272 196 0 79 110 160 265 194 112 25 298 16
403 -19z"/>
</g>
</svg>
